<svg width="240" height="300" viewBox="0 0 240 300" fill="none" xmlns="http://www.w3.org/2000/svg">
<mask id="mask0_303_338" style="mask-type:alpha" maskUnits="userSpaceOnUse" x="0" y="0" width="240" height="300">
<path d="M120 0L0 45V136.35C0 212.1 51.15 282.75 120 300C188.85 282.75 240 212.1 240 136.35V45L120 0Z" fill="black"/>
</mask>
<g mask="url(#mask0_303_338)">
<path d="M122.809 1.05337C120.998 0.374215 119.002 0.374215 117.191 1.05337L5.19102 43.0534C2.06859 44.2243 0 47.2092 0 50.544V136.35C0 211.386 50.1899 281.417 118.057 299.498C119.329 299.837 120.671 299.837 121.943 299.498C189.81 281.417 240 211.386 240 136.35V50.544C240 47.2092 237.931 44.2243 234.809 43.0534L122.809 1.05337Z" fill="#123963"/>
<path d="M201.622 132.75V213.867C201.622 214.548 201.07 215.1 200.389 215.1C184.613 215.1 171.28 203.41 169.216 187.77L164.272 150.3L201.622 132.75Z" fill="#3178C6"/>
<path d="M126.696 247.884L151.2 157.05L87.2998 157.5V237.8C87.2998 246.636 94.4632 253.8 103.3 253.8H118.972C122.588 253.8 125.754 251.375 126.696 247.884Z" fill="#3178C6"/>
<path d="M125.122 53.9999V169.2L201.622 132.75V128.909C201.622 109.707 194.248 91.2375 181.022 77.3156C166.879 62.4288 147.246 53.9999 126.713 53.9999H125.122Z" fill="#66AAF3"/>
<path d="M125.122 253.8C114.008 223.988 103.684 208.45 72.4717 184.5L94.3371 158.4L125.122 169.2V253.8Z" fill="#3F86D5"/>
<path d="M-12.7783 253.8H15.3217L-28.7783 162V237.8C-28.7783 246.637 -21.6149 253.8 -12.7783 253.8Z" fill="#3178C6"/>
<path d="M100.35 162L15.3219 253.8L-28.7781 162C-28.7781 162 -28.8281 159.805 -28.7781 158.4C-27.5223 123.134 16.1441 107.834 48.7107 94.2432L56.7219 90.9L100.35 162Z" fill="#66AAF3"/>
<path d="M125.122 53.9999V169.2C112.521 175.501 97.231 172.149 88.421 161.155L66.6675 134.008C55.765 120.402 52.8728 102.045 59.0637 85.746C66.3228 66.6352 84.6383 53.9999 105.081 53.9999H125.122Z" fill="#B8DAFF"/>
</g>
</svg>
