<svg width="512" height="512" viewBox="0 0 512 512" fill="none" xmlns="http://www.w3.org/2000/svg">
<g clip-path="url(#clip0_1_2)">
<path d="M462 0H50C22.3858 0 0 22.3858 0 50V462C0 489.614 22.3858 512 50 512H462C489.614 512 512 489.614 512 462V50C512 22.3858 489.614 0 462 0Z" fill="#3178C6"/>
<path fill-rule="evenodd" clip-rule="evenodd" d="M317 407V457C325.1 461.2 335 464.3 346 466.4C357 468.5 369 469.5 381 469.5C393 469.5 404 468.4 415 466.1C426 463.8 435 460 443 455.1C451.1 449.8 458 443.1 462 434.1C466 425.1 469.1 415.1 469.1 402.1C469.1 393 467.7 385.1 465 378.1C462.3 371.1 458.4 365.1 453 360.1C447.9 354.8 442 350.1 435 346.1C428 342.1 420 337.9 411 334.1C404.4 331.4 399 328.8 393 326.2C387.8 323.6 383.3 321 380 318.4C376.3 315.7 373.5 312.9 371.5 310C369.5 307 368.5 303.7 368.5 300C368.5 296.6 369.39 293.5 371.2 290.7C373.01 287.9 375.5 285.6 378.7 283.6C381.9 281.6 385.9 280.1 390.7 279C395.4 277.9 400.6 277.4 406.7 277.4C410.9 277.4 415.3 277.71 419.7 278.34C424.3 278.97 429 279.94 433.7 281.24C438.4 282.54 443 284.14 447.7 286.14C452.1 288.14 456.2 290.44 459.7 293.04V246.04C452.1 243.14 443.7 240.94 434.7 239.54C425.7 238.14 415.7 237.44 403.7 237.44C391.7 237.44 380.7 238.74 369.7 241.24C358.7 243.74 349.7 247.74 341.7 253.24C333.6 258.64 327.7 265.24 322.7 274.24C318 282.64 315.7 292.24 315.7 304.24C315.7 319.24 320 332.24 328.7 342.24C337.3 353.24 350.7 361.24 367.7 369.24C374.6 372.04 380.7 374.84 386.7 377.54C392.7 380.24 397.7 383.04 401.7 385.94C406 388.84 409.4 392.04 411.7 395.44C414.2 398.84 415.5 402.84 415.5 407.44C415.5 410.64 414.72 413.64 413.2 416.44C411.68 419.24 409.3 421.64 406.1 423.64C402.9 425.64 399 427.24 394.1 428.44C389.4 429.54 384.1 430.14 377.1 430.14C366.1 430.14 355.1 428.24 345.1 424.44C334.1 420.64 324.1 414.94 315.1 407.44L317 407ZM233 284H297V243H118V284H182V467H233V284Z" fill="white"/>
</g>
<defs>
<clipPath id="clip0_1_2">
<rect width="512" height="512" fill="white"/>
</clipPath>
</defs>
</svg>
